<?xml version="1.0" standalone="no"?><!DOCTYPE svg PUBLIC "-//W3C//DTD SVG 1.1//EN" "http://www.w3.org/Graphics/SVG/1.1/DTD/svg11.dtd"><svg t="1681982558506" class="icon" viewBox="0 0 1024 1024" version="1.1" xmlns="http://www.w3.org/2000/svg" p-id="59391" xmlns:xlink="http://www.w3.org/1999/xlink" width="200" height="200"><path d="M190.178387 834.720076l126.71089 0L316.889277 710.433398 190.178387 710.433398 190.178387 834.720076 190.178387 834.720076zM63.47159 959.007777l126.706797 0L190.178387 834.720076 63.47159 834.720076 63.47159 959.007777 63.47159 959.007777zM316.8903 710.433398l126.706797 0L443.597097 586.150814 316.8903 586.150814 316.8903 710.433398 316.8903 710.433398zM823.720557 834.720076 823.720557 710.433398l-126.716007 0 0 124.286678L823.720557 834.720076 823.720557 834.720076zM697.004551 710.433398 697.004551 586.150814 570.306964 586.150814 570.306964 710.433398 697.004551 710.433398 697.004551 710.433398zM958.336488 959.007777 958.336488 834.720076l-134.61593 0 0 124.286678L958.336488 959.006753 958.336488 959.007777zM443.596074 461.863113l0 124.286678 126.71089 0L570.306964 461.863113 443.596074 461.863113 443.596074 461.863113zM316.8903 312.717258l126.706797 0L443.597097 188.434673 316.8903 188.434673 316.8903 312.717258 316.8903 312.717258zM190.178387 437.009052l126.71089 0L316.889277 312.717258 190.178387 312.717258 190.178387 437.009052 190.178387 437.009052zM443.596074 188.434673l126.71089 0L570.306964 64.146972 443.596074 64.146972 443.596074 188.434673 443.596074 188.434673zM697.004551 312.717258 697.004551 188.434673 570.306964 188.434673l0 124.282584L697.004551 312.717258 697.004551 312.717258zM823.720557 437.009052 823.720557 312.717258l-126.716007 0 0 124.291794L823.720557 437.009052 823.720557 437.009052zM63.47159 561.291636l126.706797 0L190.178387 437.009052 63.47159 437.009052 63.47159 561.291636 63.47159 561.291636zM958.336488 561.291636 958.336488 437.009052l-134.61593 0 0 124.282584L958.336488 561.291636 958.336488 561.291636zM958.336488 561.291636" fill="#d81e06" p-id="59392"></path></svg>