<?xml version="1.0" standalone="no"?><!DOCTYPE svg PUBLIC "-//W3C//DTD SVG 1.1//EN" "http://www.w3.org/Graphics/SVG/1.1/DTD/svg11.dtd"><svg t="1681978574360" class="icon" viewBox="0 0 1024 1024" version="1.1" xmlns="http://www.w3.org/2000/svg" p-id="4548" id="mx_n_1681978574362" xmlns:xlink="http://www.w3.org/1999/xlink" width="200" height="200"><path d="M307.4 839.1l-0.2-28.7c52.3-58.3 127-91.8 204.9-91.8S664.6 752 717 810.4l-0.2 28.7H307.4z" fill="#FEDEA1" p-id="4549"></path><path d="M427.4 305c-6.7 6.7-6.7 17.6 0 24.3 6.7 6.7 17.6 6.7 24.3 0 33.5-33.6 88.2-33.6 121.7 0 3.4 3.4 7.8 5 12.1 5 4.4 0 8.8-1.7 12.2-5 6.7-6.7 6.7-17.6 0-24.3-46.9-47-123.3-47-170.3 0zM722.7 407.6c-6.7 6.7-6.7 17.6 0 24.3 6.7 6.7 17.6 6.7 24.3 0 21.3-21.4 58.5-21.4 79.9 0 3.4 3.4 7.8 5.1 12.2 5.1 4.4 0 8.8-1.7 12.2-5.1 6.7-6.7 6.7-17.6 0-24.3-34.4-34.4-94.2-34.4-128.6 0zM785.8 577.7c1.4 0.4 2.9 0.6 4.3 0.6 7.7 0 14.7-5.1 16.7-12.9 6.1-23.5 2.7-48-9.5-68.9-12.3-20.9-32-35.8-55.5-42-9.3-2.5-18.6 3.1-21 12.3-2.4 9.2 3.1 18.6 12.3 21 14.6 3.8 26.9 13.1 34.5 26 7.6 13 9.8 28.2 5.9 42.8-2.4 9.3 3.1 18.8 12.3 21.1zM680.1 281.3c-7.6-5.6-18.3-4.1-24.1 3.6-5.7 7.6-4.1 18.4 3.5 24.1 25 18.6 30.2 54 11.7 79-5.7 7.6-4.1 18.4 3.5 24.1 3.1 2.3 6.7 3.4 10.3 3.4 5.2 0 10.4-2.4 13.8-7 29.9-40.3 21.5-97.3-18.7-127.2zM513.7 392.6c-6.9 6.6-7 17.5-0.4 24.3 6.6 6.9 17.5 7.1 24.3 0.4 22.5-21.6 58.3-20.9 79.8 1.5 3.4 3.5 7.9 5.3 12.4 5.3 4.3 0 8.6-1.6 11.9-4.8 6.9-6.6 7.1-17.5 0.5-24.3-34.7-36.1-92.4-37.2-128.5-2.4zM685.8 485c-8.5 4.3-11.9 14.7-7.6 23.1 6.8 13.5 8 28.8 3.3 43.1s-14.7 26-28.2 32.8c-8.5 4.3-11.9 14.7-7.6 23.1 3 6 9.1 9.5 15.4 9.5 2.6 0 5.3-0.6 7.8-1.9 21.7-11 37.8-29.7 45.3-52.8 7.6-23.1 5.7-47.7-5.3-69.4-4.3-8.4-14.7-11.8-23.1-7.5zM488 167.8c-32.2 0.6-62.2 13.7-84.5 36.9-22.3 23.2-34.3 53.7-33.6 85.9 0.2 9.4 7.9 16.9 17.2 16.9h0.3c9.5-0.2 17.1-8 16.9-17.6-0.4-23 8.1-44.8 24-61.3s37.4-25.9 60.4-26.4c9.5-0.2 17.1-8 16.9-17.6-0.3-9.5-9.1-17.3-17.6-16.8zM375.2 381.6c-8.7-3.7-18.9 0.4-22.5 9.2-12.5 29.7-12.6 62.4-0.5 92.2 12.2 29.8 35.2 53 64.9 65.5 2.2 0.9 4.4 1.3 6.7 1.3 6.7 0 13.1-4 15.9-10.5 3.7-8.8-0.4-18.9-9.2-22.5-21.2-8.9-37.7-25.6-46.4-46.8-8.7-21.3-8.5-44.7 0.4-65.9 3.6-8.8-0.5-18.9-9.3-22.5zM335.3 377.8c9-3 14-12.7 11-21.7-2.9-9-12.7-14-21.7-11-63.1 20.7-97.6 89-76.8 152.1 2.3 7.2 9.1 11.8 16.3 11.8 1.8 0 3.6-0.3 5.4-0.9 9-3 14-12.7 11-21.7-14.9-45 9.7-93.8 54.8-108.6zM319.3 317.1c7.1 6.4 18 5.8 24.3-1.3 6.4-7.1 5.8-18-1.3-24.3-24-21.5-55.1-32.4-87-30.6-32.1 1.7-61.7 15.9-83.2 39.9-6.3 7.1-5.7 18 1.3 24.3 3.3 3 7.4 4.4 11.5 4.4 4.7 0 9.4-1.9 12.8-5.7 15.4-17.1 36.5-27.2 59.4-28.5 22.7-1.2 45 6.5 62.2 21.8z" fill="#11be45" p-id="4550" data-spm-anchor-id="a313x.7781069.0.i12" class="selected"></path><path d="M529.9 702.3c6.7-120.3 86-222 157.4-235.1 9.4-1.7 15.6-10.7 13.9-20-1.8-9.4-10.9-15.6-20-13.8-60.3 11.1-125.3 71.3-160.4 155.7-16.3-112.5-56.7-194.4-127.4-261.7-6.8-6.5-17.7-6.3-24.3 0.6-6.6 6.9-6.3 17.8 0.6 24.3 84.9 80.9 122.3 186.6 124.7 350-76.3 4.7-148.4 39-200 96.5-9.1 10.1-11.3 24.6-5.8 37 5.5 12.4 17.8 20.4 31.4 20.4h384.1c13.6 0 25.9-8 31.4-20.4 5.5-12.4 3.3-26.9-5.8-37-51.6-57.4-123.6-91.8-199.8-96.5z m-210 119.5c47.3-52.7 115.7-86.1 192.1-86.1 76.4 0 144.8 33.4 192.1 86.1H319.9z" fill="#573A32" p-id="4551"></path></svg>