<?xml version="1.0" standalone="no"?><!DOCTYPE svg PUBLIC "-//W3C//DTD SVG 1.1//EN" "http://www.w3.org/Graphics/SVG/1.1/DTD/svg11.dtd"><svg t="1682316582062" class="icon" viewBox="0 0 1024 1024" version="1.1" xmlns="http://www.w3.org/2000/svg" p-id="20399" id="mx_n_1682316582064" xmlns:xlink="http://www.w3.org/1999/xlink" width="200" height="200"><path d="M128 384h64v-64h64v-64h64v-64h384v64h64v64h64v64h64v-64L704 128H320L128 320zM64 704v64h64v64h64v64h64v64h64v64h384v-64h64v-64h64v-64h64v-64h64v-64h-64L704 896H576V576h64v-64H384v64h64v320H320L128 704z" fill="#8A8A8A" p-id="20400"></path><path d="M320 64h384v64H320zM768 128h-64v64c0 5.15 64 0 64 0v-64zM768 256v-64l64 2.29V256zM832 256h64v64h-64zM896 320h64v384h-64zM832 704h64v64h-64zM768 768h64v64h-64zM704 832h64v64h-64v-64zM320 896h384v64H320zM256 832h64v64h-64zM192 768h64v64h-64zM128 704s-6.89 64 0 64h64v-64h-64zM64 320h64v384H64zM128 256h64v64h-64zM192 194.29h64V256h-64zM256 128h64v66.29h-64zM448 704h128v128H448zM448 640h128V512h64V194.29L384 192v320h64z" fill="#515151" p-id="20401" data-spm-anchor-id="a313x.7781069.0.i2" class=""></path><path d="M512 256h64v192h-64z" fill="#CCCCCC" p-id="20402" data-spm-anchor-id="a313x.7781069.0.i3" class=""></path></svg>