<?xml version="1.0" standalone="no"?><!DOCTYPE svg PUBLIC "-//W3C//DTD SVG 1.1//EN" "http://www.w3.org/Graphics/SVG/1.1/DTD/svg11.dtd"><svg t="1682299922482" class="icon" viewBox="0 0 1024 1024" version="1.1" xmlns="http://www.w3.org/2000/svg" p-id="4967" xmlns:xlink="http://www.w3.org/1999/xlink" width="200" height="200"><path d="M790.8 339.4v463.2c0 39-31.6 70.6-70.6 70.6H300.1c-39 0-70.6-31.6-70.6-70.6V220.1c0-39 31.6-70.6 70.6-70.6h300.4l190.3 189.9z" fill="#FFFFFF" p-id="4968"></path><path d="M595.6 161.3H300.1c-32.5 0-58.8 26.3-58.8 58.8v582.6c0 32.5 26.3 58.8 58.8 58.8h420.1c32.5 0 58.8-26.3 58.8-58.8V344.3l-183.4-183z m207 641.4c0 45.5-36.9 82.4-82.4 82.4H300.1c-45.5 0-82.4-36.9-82.4-82.4V220.1c0-45.5 36.9-82.4 82.4-82.4h305.3l197.2 196.9v468.1z" fill="#32323C" p-id="4969"></path><path d="M594.2 288l151.5 11.7 33.2 26.5v75.5H645.5zM325.1 714.6L779 726.4v71.9H376.4z" fill="#E6E8F6" p-id="4970"></path><path d="M367.4 382.5h457.3c26.1 0 47.2 21.2 47.2 47.2v270.4c0 26.1-21.2 47.2-47.2 47.2H367.4c-26.1 0-47.2-21.2-47.2-47.2V429.7c0-26.1 21.1-47.2 47.2-47.2z" fill="#DD5B4E" p-id="4971"></path><path d="M367.4 401.4c-15.7 0-28.3 12.7-28.3 28.3v270.4c0 15.7 12.7 28.3 28.3 28.3h457.3c15.7 0 28.3-12.7 28.3-28.3V429.7c0-15.7-12.7-28.3-28.3-28.3H367.4z m0-18.9h457.3c26.1 0 47.2 21.2 47.2 47.2v270.4c0 26.1-21.2 47.2-47.2 47.2H367.4c-26.1 0-47.2-21.2-47.2-47.2V429.7c0-26.1 21.1-47.2 47.2-47.2z" fill="#32323C" p-id="4972"></path><path d="M834.2 385.9c21.6 4.4 37.8 23.4 37.8 46.3v271.5c0 26.1-21.2 47.2-47.2 47.2H367.4c-26.1 0-47.2-21.2-47.2-47.2v-27.1c5.8 2.5 12.2 3.9 18.9 3.9H787c26.1 0 47.2-21.2 47.2-47.2V385.9z" fill="#DE3028" p-id="4973"></path><path d="M367.4 405.1c-15.7 0-28.3 12.7-28.3 28.3v270.4c0 15.7 12.7 28.3 28.3 28.3h457.3c15.7 0 28.3-12.7 28.3-28.3V433.4c0-15.7-12.7-28.3-28.3-28.3H367.4z m0-18.9h457.3c26.1 0 47.2 21.2 47.2 47.2v270.4c0 26.1-21.2 47.2-47.2 47.2H367.4c-26.1 0-47.2-21.2-47.2-47.2V433.4c0-26.1 21.1-47.2 47.2-47.2z" fill="#32323C" p-id="4974"></path><path d="M590 564.4h-68.8v8.5H600V588h-15.5c5.4 7.3 10.3 14.7 14.8 22.1l-12.5 6.1V630h-65.1v9.2h79.2V658H418v-18.6h79.5v-9.2h-66.4V616l-12.5-8c5.4-6.7 10.1-13.3 14.1-19.9h-13.6V573h78.1v-8.5h-68.5v-14.8h68.5v-8.3h-66.3v-54.8h156.5v54.8h-66.3v8.3H590v14.7z m-49.3-62.5h-19.6v24.4h17.2L527 518c5-5.3 9.5-10.6 13.7-16.1z m-49.2 15.5l-12.5 8.9h18.3v-24.4h-19.9c4.4 4.5 9.1 9.6 14.1 15.5z m-37 8.8H473c-3.8-5.2-8.2-10.7-13.4-16.4l10.6-7.9h-15.8v24.3z m109.3 0v-24.4h-16.7l11.9 8.3c-4.5 5.3-9.4 10.6-14.7 16.1h19.5z m-66.3 72h24v15.7h53.3c-4.7-7.9-9.6-15.4-14.6-22.3l7.3-3.5h-25c3.6 5.4 6.8 10.4 9.8 15.1l-19.7 9c-4.4-8.5-8.3-15.4-11.6-20.9l7.3-3.3h-40c2.8 5.4 5.5 11 8.1 16.6l-19.9 7.9c-3.3-8-6.5-15.3-9.6-21.8l7.3-2.8H449l7.6 4.1c-5.2 8.2-10.1 15.5-14.5 21.8h55.5v-15.6z m201 60.6c-1.2-7-3.6-16.2-7-27.7 15.5 1.1 27.3 1.7 35.4 1.7 5.5 0 9.9-0.9 13.2-2.8 3.3-1.8 5.6-4.4 7-7.8 1.4-3.3 2.5-24 3.3-62.1l0.6-40.3h-61c-0.5 70.3-20.5 118.2-60.2 143.6-6.6-6.4-14.1-13-22.5-19.9 37.5-24.2 56.3-65.5 56.4-123.7h-47.9v-24.4h163l-1.8 75.5-2.1 50c-0.7 11.4-3.9 20.3-9.6 26.6-5.8 6.4-13.4 9.9-22.9 10.5-9.7 0.6-24.3 0.9-43.9 0.8z" fill="#FFFFFF" p-id="4975"></path><path d="M790.8 340.8H679.3c-41.7 0-75.6-33.8-75.6-75.6V153.8l187.1 187z" fill="#D0D3E3" p-id="4976"></path><path d="M615.5 182.3v82.9c0 35.2 28.6 63.8 63.8 63.8h83L615.5 182.3z m175.3 170.4H679.3c-48.3 0-87.4-39.1-87.4-87.4V153.8c0-10.5 12.7-15.8 20.2-8.4l187.1 187c7.4 7.5 2.1 20.3-8.4 20.3z" fill="#32323C" p-id="4977"></path></svg>